#!OML:ASF H:\Punching\Project 1\Capture day 1\Session 1\female.ASF
:FULLY-SPECIFIED
:DEGREES
1568
root 1.27912 14.5181 -1.88914 21.5537 -30.6931 -8.72446
lowerback -3.12184 2.09876 7.54104
upperback -6.5271 2.73077 -0.836269
thorax -4.67707 0.963405 -5.11275
lowerneck -11.8993 6.35633 12.1771
upperneck 33.9753 8.06298 -6.30656
head 14.4782 4.13565 -3.42917
rclavicle 2.33572e-014 -7.15625e-015
rhumerus -0.36185 22.7128 -73.9718
rradius 130.467
rwrist -5.34011
rhand -36.4261 10.6126
rfingers 7.12502
rthumb -9.5209 -19.1523
lclavicle 2.33572e-014 -7.15625e-015
lhumerus -3.51083 -15.1217 58.7965
lradius 140.829
lwrist -2.64969
lhand -27.893 6.91189
lfingers 7.12502
lthumb -1.28253 36.8878
rfemur 1.08181 5.25166 26.3316
rtibia 19.8012
rfoot -30.4188 -30.3218
rtoes -12.8133
lfemur -62.7097 5.60954 -1.51086
ltibia 46.1992
lfoot 5.64072 19.6208
ltoes 10.921
1569
root 1.2773 14.4934 -1.7951 21.5266 -30.2417 -8.87836
lowerback -3.35624 2.23922 7.84636
upperback -6.64315 2.90042 -0.854246
thorax -4.63397 1.03125 -5.29524
lowerneck -12.0551 6.12109 12.0701
upperneck 34.2329 7.59238 -5.90266
head 14.548 3.97303 -3.32588
rclavicle -3.78933e-014 -2.3059e-014
rhumerus -0.0669881 22.2344 -73.7995
rradius 130.492
rwrist -5.19002
rhand -36.45 10.6208
rfingers 7.12502
rthumb -9.54399 -19.143
lclavicle -3.78933e-014 -2.3059e-014
lhumerus -3.41514 -14.671 57.8857
lradius 140.889
lwrist -2.29252
lhand -27.7145 7.02515
lfingers 7.12502
lthumb -1.11021 37.002
rfemur 1.73862 5.26665 26.4778
rtibia 19.5314
rfoot -30.2134 -30.4922
rtoes -13.6555
lfemur -62.9071 5.75364 -1.9619
ltibia 46.8217
lfoot 5.90617 18.9329
ltoes 9.771
1570
root 1.27718 14.4683 -1.6951 21.5023 -29.7677 -9.03168
lowerback -3.60584 2.37256 8.14938
upperback -6.76481 3.0585 -0.852906
thorax -4.58982 1.09362 -5.45458
lowerneck -12.2398 5.88911 11.9503
upperneck 34.5067 7.13182 -5.51763
head 14.6373 3.81162 -3.2258
rclavicle 5.52373e-014 1.98785e-014
rhumerus 0.232106 21.7665 -73.5612
rradius 130.513
rwrist -5.08342
rhand -36.5407 10.7308
rfingers 7.12502
rthumb -9.63155 -19.029
lclavicle 5.52373e-014 1.98785e-014
lhumerus -3.30401 -14.1739 56.9927
lradius 140.966
lwrist -1.82228
lhand -27.4019 7.0998
lfingers 7.12502
lthumb -0.808228 37.078
rfemur 2.39891 5.27168 26.615
rtibia 19.2895
rfoot -29.9705 -30.6448
rtoes -14.594
lfemur -63.0972 5.85758 -2.45272
ltibia 47.5209
lfoot 5.92568 17.9915
ltoes 8.72942
1571
root 1.27867 14.4433 -1.5889 21.474 -29.2733 -9.17893
lowerback -3.87204 2.4993 8.45277
upperback -6.89474 3.20526 -0.838972
thorax -4.54661 1.15015 -5.59936
lowerneck -12.434 5.65678 11.816
upperneck 34.7946 6.67437 -5.1402
head 14.7394 3.65 -3.12557
rclavicle -4.89507e-015 -3.97569e-015
rhumerus 0.509519 21.3129 -73.2719
rradius 130.513
rwrist -4.97035
rhand -36.7342 10.987
rfingers 7.12502
rthumb -9.81823 -18.7641
lclavicle -4.89507e-015 -3.97569e-015
lhumerus -3.16831 -13.6332 56.1143
lradius 141.057
lwrist -1.22906
lhand -26.941 7.08707
lfingers 7.12502
lthumb -0.363126 37.0665
rfemur 3.07162 5.27013 26.7401
rtibia 19.0682
rfoot -29.6756 -30.7876
rtoes -15.634
lfemur -63.2673 5.8923 -2.9593
ltibia 48.2725
lfoot 5.59062 16.8616
ltoes 7.91572
1572
root 1.28178 14.4191 -1.47627 21.432 -28.7523 -9.31063
lowerback -4.15611 2.6215 8.75179
upperback -7.03145 3.34307 -0.815351
thorax -4.50199 1.20233 -5.72987
lowerneck -12.6311 5.41796 11.6578
upperneck 35.0916 6.21005 -4.75904
head 14.8486 3.48427 -3.02052
rclavicle -5.69021e-015 7.95139e-015
rhumerus 0.741312 20.8476 -72.9218
rradius 130.53
rwrist -4.90196
rhand -36.9686 11.3266
rfingers 7.12502
rthumb -10.0444 -18.4137
lclavicle -5.69021e-015 7.95139e-015
lhumerus -3.02493 -13.1202 55.2674
lradius 141.17
lwrist -0.636801
lhand -26.3998 7.15319
lfingers 7.12502
lthumb 0.159571 37.1329
rfemur 3.76676 5.25212 26.8477
rtibia 18.8578
rfoot -29.3637 -30.902
rtoes -16.6746
lfemur -63.4052 5.82494 -3.46133
ltibia 49.0435
lfoot 4.85001 15.706
ltoes 7.45314
1573
root 1.2863 14.3963 -1.35745 21.3744 -28.2135 -9.43293
lowerback -4.4501 2.74154 9.04657
upperback -7.17049 3.47557 -0.785363
thorax -4.45512 1.2521 -5.84987
lowerneck -12.8475 5.17263 11.4808
upperneck 35.4006 5.73236 -4.36594
head 14.9698 3.31326 -2.90889
rclavicle -1.01629e-014 -6.36111e-015
rhumerus 0.933371 20.3558 -72.5163
rradius 130.571
rwrist -4.8763
rhand -37.1959 11.6916
rfingers 7.12502
rthumb -10.2636 -18.038
lclavicle -1.01629e-014 -6.36111e-015
lhumerus -2.85391 -12.6177 54.4489
lradius 141.255
lwrist -0.0724791
lhand -25.8395 7.03823
lfingers 7.12502
lthumb 0.700808 37.0168
rfemur 4.48955 5.23447 26.9447
rtibia 18.6491
rfoot -28.9869 -31.008
rtoes -17.7765
lfemur -63.4943 5.64753 -3.92813
ltibia 49.799
lfoot 3.76706 14.6857
ltoes 7.32893
1574
root 1.29219 14.3758 -1.23256 21.2909 -27.656 -9.53399
lowerback -4.75401 2.86291 9.33085
upperback -7.31086 3.60722 -0.756244
thorax -4.40418 1.30198 -5.96334
lowerneck -13.0771 4.91478 11.2836
upperneck 35.7179 5.2297 -3.95157
head 15.0991 3.1333 -2.7885
rclavicle -6.27321e-014 -1.43125e-014
rhumerus 1.06589 19.7932 -72.0511
rradius 130.698
rwrist -4.99252
rhand -37.2608 11.9268
rfingers 7.12502
rthumb -10.3262 -17.7996
lclavicle -6.27321e-014 -1.43125e-014
lhumerus -2.65311 -12.1912 53.6652
lradius 141.297
lwrist 0.357028
lhand -25.4074 6.93299
lfingers 7.12502
lthumb 1.11809 36.9098
rfemur 5.24301 5.21836 27.0219
rtibia 18.4448
rfoot -28.579 -31.0879
rtoes -18.871
lfemur -63.521 5.35398 -4.35891
ltibia 50.5057
lfoot 2.46297 13.9236
ltoes 7.54814
1575
root 1.29939 14.3582 -1.10237 21.1726 -27.0797 -9.60505
lowerback -5.05293 2.98379 9.58482
upperback -7.45272 3.73778 -0.726109
thorax -4.3587 1.35244 -6.05795
lowerneck -13.314 4.64459 11.0694
upperneck 36.0338 4.70413 -3.52166
head 15.2317 2.94501 -2.66177
rclavicle 7.02176e-014 -4.77083e-015
rhumerus 1.15068 19.1441 -71.5287
rradius 130.936
rwrist -5.32677
rhand -37.0486 11.8946
rfingers 7.12502
rthumb -10.1215 -17.8419
lclavicle 7.02176e-014 -4.77083e-015
lhumerus -2.4493 -11.868 52.9392
lradius 141.306
lwrist 0.618119
lhand -25.1424 6.84771
lfingers 7.12502
lthumb 1.37406 36.823
rfemur 6.01838 5.19585 27.0712
rtibia 18.2623
rfoot -28.1567 -31.1258
rtoes -19.9275
lfemur -63.4743 4.95571 -4.76368
ltibia 51.1362
lfoot 1.08174 13.4616
ltoes 7.98998
1576
root 1.30807 14.3438 -0.966942 21.0122 -26.4932 -9.63277
lowerback -5.34774 3.10501 9.80031
upperback -7.59521 3.86848 -0.702016
thorax -4.31704 1.40446 -6.13656
lowerneck -13.5446 4.35771 10.8416
upperneck 36.3384 4.15223 -3.08349
head 15.3604 2.7464 -2.53306
rclavicle 8.20856e-014 1.27222e-014
rhumerus 1.1789 18.4165 -70.9492
rradius 131.224
rwrist -5.72294
rhand -36.7301 11.7692
rfingers 7.12502
rthumb -9.81428 -17.982
lclavicle 8.20856e-014 1.27222e-014
lhumerus -2.23098 -11.6108 52.2728
lradius 141.249
lwrist 0.785365
lhand -25.0425 6.64439
lfingers 7.12502
lthumb 1.47051 36.6191
rfemur 6.79892 5.15773 27.0707
rtibia 18.1353
rfoot -27.6987 -31.1111
rtoes -20.9961
lfemur -63.3386 4.48526 -5.18083
ltibia 51.6695
lfoot -0.233124 13.2577
ltoes 8.54434
1577
root 1.31836 14.3333 -0.827026 20.7931 -25.9094 -9.596
lowerback -5.62032 3.22299 9.9458
upperback -7.74155 3.99804 -0.682038
thorax -4.29456 1.45811 -6.18077
lowerneck -13.7504 4.0551 10.5985
upperneck 36.6267 3.58246 -2.64755
head 15.4796 2.53929 -2.4052
rclavicle -3.30976e-014 -3.97569e-015
rhumerus 1.15062 17.6297 -70.3145
rradius 131.534
rwrist -6.14521
rhand -36.3458 11.5654
rfingers 7.12502
rthumb -9.4435 -18.2031
lclavicle -3.30976e-014 -3.97569e-015
lhumerus -2.02743 -11.4391 51.6821
lradius 141.178
lwrist 0.873214
lhand -25.0643 6.51254
lfingers 7.12502
lthumb 1.44944 36.4874
rfemur 7.56517 5.09439 26.9913
rtibia 18.1068
rfoot -27.1982 -31.0342
rtoes -22.0705
lfemur -63.0925 3.97349 -5.65578
ltibia 52.0946
lfoot -1.43395 13.1737
ltoes 8.9425
